<svg xmlns="http://www.w3.org/2000/svg" viewBox="0 0 512 512">
  <rect width="512" height="512" fill="#2E5C7E"/>
  <!-- Autocaravana cartoon, escalada y centrada dentro de la zona segura (80%) -->
  <g transform="translate(250.26 247.8) scale(0.82)">
    <ellipse cx="0" cy="108" rx="150" ry="20" fill="#0F2027" opacity="0.18"/>
    <line x1="-108" y1="-64" x2="-108" y2="-108" stroke="#F5F2EC" stroke-width="7"/>
    <path d="M-108 -108 L-58 -92 L-108 -76 Z" fill="#F2C14E"/>
    <rect x="-152" y="-64" width="256" height="132" rx="40" fill="#F5F2EC" stroke="#1F3F58" stroke-width="10"/>
    <path d="M104 -22 L166 8 L166 68 L104 68 Z" fill="#F5F2EC" stroke="#1F3F58" stroke-width="10" stroke-linejoin="round"/>
    <rect x="-152" y="28" width="256" height="20" fill="#B85C38"/>
    <rect x="-124" y="-38" width="66" height="46" rx="12" fill="#8FB8CE"/>
    <rect x="-34" y="-38" width="66" height="46" rx="12" fill="#8FB8CE"/>
    <path d="M108 -8 L150 12 L150 54 L108 54 Z" fill="#8FB8CE"/>
    <circle cx="-78" cy="76" r="30" fill="#1F3F58"/>
    <circle cx="-78" cy="76" r="11" fill="#D9D2C2"/>
    <circle cx="86" cy="76" r="30" fill="#1F3F58"/>
    <circle cx="86" cy="76" r="11" fill="#D9D2C2"/>
  </g>
</svg>
